<?xml version="1.0" encoding="iso-8859-1"?>
<!-- Uploaded to: SVG Repo, www.svgrepo.com, Generator: SVG Repo Mixer Tools -->
<svg version="1.1" id="Layer_1" xmlns="http://www.w3.org/2000/svg" xmlns:xlink="http://www.w3.org/1999/xlink" 
	 viewBox="0 0 512.001 512.001" xml:space="preserve">
<path d="M0,345.001V52.224c0.106-5.147,4.254-9.294,9.4-9.4h443.864c5.147,0.106,9.294,4.254,9.4,9.4v292.8L0,345.001z"/>
<g>
	<path style="fill:#BCBCBC;" d="M462.664,345.001v37.6c-0.106,5.147-4.254,9.294-9.4,9.4H9.4c-5.15-0.105-9.298-4.257-9.4-9.407
		v-37.6L462.664,345.001z"/>
	<rect x="132.293" y="458.5" style="fill:#BCBCBC;" width="198.076" height="9.402"/>
</g>
<polygon style="fill:#2D2D2D;" points="297.12,458.497 165.544,458.497 174.944,391.992 287.72,391.992 "/>
<rect x="18.794" y="61.628" style="fill:#CCCCCC;" width="425.076" height="264.587"/>
<polygon points="287.72,391.992 174.944,391.992 169.696,429.113 289.408,403.945 "/>
<g>
	<rect x="89.468" y="227.261" style="fill:#999999;" width="283.745" height="12"/>
	<rect x="141.088" y="263.327" style="fill:#999999;" width="180.496" height="12"/>
</g>
<rect x="36.458" y="133.956" style="fill:#FFFFFF;" width="389.757" height="174.596"/>
<rect x="236.7" y="168.537" width="175.286" height="3.544"/>
<g>
	<rect x="236.7" y="180.469" style="fill:#CCCCCC;" width="175.286" height="3.544"/>
	<rect x="236.7" y="189.618" style="fill:#CCCCCC;" width="175.286" height="3.544"/>
	<rect x="236.7" y="198.758" style="fill:#CCCCCC;" width="175.286" height="3.544"/>
	<rect x="236.7" y="207.908" style="fill:#CCCCCC;" width="175.286" height="3.544"/>
	<rect x="236.7" y="217.038" style="fill:#CCCCCC;" width="175.286" height="3.544"/>
	<rect x="236.7" y="226.188" style="fill:#CCCCCC;" width="175.286" height="3.544"/>
	<rect x="236.7" y="235.328" style="fill:#CCCCCC;" width="175.286" height="3.544"/>
	<rect x="236.7" y="244.477" style="fill:#CCCCCC;" width="175.286" height="3.544"/>
	<rect x="236.7" y="253.608" style="fill:#CCCCCC;" width="175.286" height="3.544"/>
	<rect x="236.7" y="262.758" style="fill:#CCCCCC;" width="175.286" height="3.544"/>
	<rect x="236.7" y="271.898" style="fill:#CCCCCC;" width="175.286" height="3.544"/>
</g>
<rect x="36.458" y="79.274" style="fill:#E81241;" width="389.757" height="44.648"/>
<polygon points="105.888,191.384 94.672,158.201 65.64,158.201 65.64,149.336 101.04,149.336 114.288,188.544 "/>
<circle cx="170.226" cy="274.493" r="17.072"/>
<circle cx="118.719" cy="274.493" r="17.072"/>
<polygon style="fill:#FFFFFF;" points="106.352,247.793 87.096,185.937 204.672,185.937 182.624,247.793 "/>
<g>
	<path style="fill:#E21B1B;" d="M201.832,187.937l-20.616,57.848h-73.392l-18.016-57.848h112 M207.48,183.937H84.376l20.504,65.848
		H184l23.472-65.848L207.48,183.937L207.48,183.937z"/>
	<polygon style="fill:#E21B1B;" points="195.92,206.641 167.352,206.641 160.488,218.705 132.208,218.705 134.88,227.057 
		187.672,227.057 	"/>
</g>
<path d="M488.168,469.176H364.8c-13.147-0.035-23.797-10.684-23.832-23.832V185.137c0.035-13.147,10.684-23.797,23.832-23.832
	h123.368c13.147,0.035,23.797,10.684,23.832,23.832v260.208C511.961,458.49,501.314,469.137,488.168,469.176z"/>
<g>
	<rect x="352.244" y="185.603" style="fill:#CCCCCC;" width="148.473" height="242.759"/>
	<path style="fill:#CCCCCC;" d="M448.744,176H418.4c-1.368-0.005-2.476-1.112-2.48-2.48l0,0c0.005-1.368,1.112-2.476,2.48-2.48h30.4
		c1.368,0.005,2.476,1.112,2.48,2.48l0,0c-0.004,1.374-1.121,2.484-2.496,2.481C448.771,176.001,448.758,176.001,448.744,176z"/>
	<circle style="fill:#CCCCCC;" cx="404.219" cy="173.513" r="2.48"/>
	<path style="fill:#CCCCCC;" d="M426.48,460.497c-6.481,0-11.736-5.254-11.736-11.736c0-6.481,5.254-11.736,11.736-11.736
		c6.482,0,11.736,5.254,11.736,11.736l0,0C438.207,455.238,432.958,460.488,426.48,460.497z M426.48,439.425
		c-5.156,0-9.336,4.18-9.336,9.336s4.18,9.336,9.336,9.336s9.336-4.18,9.336-9.336l0,0
		C435.811,443.607,431.634,439.429,426.48,439.425z"/>
</g>
<rect x="363.942" y="255.251" style="fill:#FFFFFF;" width="125.077" height="158.229"/>
<rect x="378.18" y="351.143" width="96.611" height="3.544"/>
<g>
	<rect x="378.18" y="363.084" style="fill:#CCCCCC;" width="96.611" height="3.544"/>
	<rect x="378.18" y="372.233" style="fill:#CCCCCC;" width="96.611" height="3.544"/>
	<rect x="378.18" y="381.373" style="fill:#CCCCCC;" width="96.611" height="3.544"/>
	<rect x="378.18" y="390.514" style="fill:#CCCCCC;" width="96.611" height="3.544"/>
	<rect x="378.18" y="399.654" style="fill:#CCCCCC;" width="96.611" height="3.544"/>
</g>
<rect x="363.942" y="200.569" style="fill:#E81241;" width="125.077" height="44.648"/>
<polygon points="412.056,289.848 406.792,274.257 393.152,274.257 393.152,270.088 409.784,270.088 416.008,288.512 "/>
<circle cx="442.291" cy="328.895" r="8.024"/>
<circle cx="418.092" cy="328.895" r="8.024"/>
<polygon style="fill:#FFFFFF;" points="412.321,316.281 403.312,287.344 458.392,287.344 448.08,316.281 "/>
<g>
	<path style="fill:#E21B1B;" d="M456.968,288.344l-9.6,26.936h-34.312l-8.392-26.936h52.296 M459.792,286.344h-57.84l9.6,30.936
		H448.8l11.024-30.936L459.792,286.344L459.792,286.344z"/>
	<polygon style="fill:#E21B1B;" points="454.36,297.297 440.936,297.297 437.712,302.961 424.424,302.961 425.68,306.889 
		450.488,306.889 	"/>
</g>
</svg>